<?xml version="1.0" standalone="no"?> <!DOCTYPE svg PUBLIC "-//W3C//DTD SVG 20010904//EN" "http://www.w3.org/TR/2001/REC-SVG-20010904/DTD/svg10.dtd"> <svg version="1.0" xmlns="http://www.w3.org/2000/svg" width="544.000000pt" height="459.000000pt" viewBox="0 0 544.000000 459.000000" preserveAspectRatio="xMidYMid meet"> <g transform="translate(0.000000,459.000000) scale(0.100000,-0.100000)" fill="#de5317" stroke="none"> <path d="M1845 4400 c-160 -24 -339 -98 -485 -201 -94 -66 -223 -196 -216 -216 3 -8 2 -11 -3 -8 -25 15 -149 -203 -190 -333 -45 -144 -54 -215 -48 -381 6 -162 23 -243 81 -380 116 -276 385 -521 683 -622 128 -43 198 -50 486 -50 276 1 299 4 344 54 19 20 163 254 221 357 14 25 46 79 72 120 49 78 90 154 90 166 0 4 -9 -1 -20 -11 -11 -10 -20 -15 -20 -10 0 4 -13 -19 -30 -51 -16 -32 -30 -63 -30 -67 0 -4 -12 -19 -27 -33 -16 -14 -22 -23 -15 -19 16 8 15 -4 -4 -35 l-15 -25 6 25 c5 19 4 22 -4 10 -6 -8 -11 -22 -11 -31 0 -9 -9 -28 -20 -41 -10 -14 -18 -27 -16 -29 2 -2 -3 -10 -11 -18 -13 -12 -14 -11 -9 10 6 20 5 21 -4 6 -6 -9 -9 -21 -6 -26 10 -15 -49 -112 -61 -100 -7 7 -9 0 -8 -20 1 -17 -2 -28 -6 -26 -4 3 -12 -7 -17 -23 -6 -15 -24 -42 -40 -59 -17 -18 -33 -42 -37 -53 -8 -24 -60 -40 -133 -40 -33 0 -51 -4 -47 -10 4 -6 -6 -10 -22 -10 -22 0 -25 2 -13 10 11 7 5 10 -22 10 -21 0 -38 -4 -38 -10 0 -5 -9 -10 -20 -10 -11 0 -20 5 -20 11 0 7 -51 10 -165 7 -91 -2 -165 0 -165 4 0 5 -19 8 -42 9 -24 0 -37 3 -30 6 6 2 10 8 7 13 -6 10 85 31 99 23 5 -3 6 -1 3 4 -6 10 16 20 62 29 8 1 17 7 20 12 3 5 22 16 41 26 19 9 53 32 74 51 40 35 64 46 50 23 -4 -7 2 -4 14 6 25 21 31 36 7 16 -30 -25 -16 16 15 43 29 27 46 35 36 19 -3 -5 1 -9 9 -9 10 0 12 4 5 12 -11 13 6 35 28 35 7 0 11 4 8 9 -8 13 16 29 37 26 17 -3 17 -1 4 19 -14 20 -13 24 5 35 15 9 23 10 27 2 4 -6 7 5 8 25 1 24 10 45 27 63 15 15 25 29 24 32 -2 2 3 -2 10 -10 14 -18 16 -7 2 18 -7 14 -4 24 10 39 11 12 20 25 20 30 0 4 7 17 16 28 14 18 14 18 3 -6 -11 -23 -11 -24 5 -11 10 9 14 21 10 34 -5 15 -3 19 8 15 9 -4 14 1 15 14 1 11 13 34 27 53 14 18 22 36 18 40 -4 5 -1 4 7 0 11 -6 13 -4 8 7 -3 10 0 15 10 14 9 0 18 6 20 14 4 13 3 13 -6 0 -21 -30 -10 2 14 40 14 22 25 44 25 49 0 5 6 14 14 20 12 10 14 9 12 -6 -2 -10 -1 -12 1 -5 3 7 9 9 15 6 6 -4 6 1 -1 14 -8 15 -7 23 4 32 8 7 15 19 15 26 0 8 7 11 18 8 13 -5 14 -4 3 4 -11 8 -9 15 9 40 13 17 28 28 33 25 6 -3 7 -1 3 6 -4 6 -13 8 -19 4 -8 -4 -7 -1 1 9 10 13 10 18 1 24 -8 5 -9 3 -4 -6 5 -9 4 -11 -3 -6 -17 10 5 49 21 40 7 -4 9 -3 4 1 -4 5 -18 10 -30 12 -17 2 -19 1 -7 -7 11 -7 11 -10 2 -10 -7 0 -15 8 -19 18 -3 9 -12 24 -20 33 -8 9 -15 26 -16 37 0 11 -6 18 -13 15 -7 -2 -15 5 -19 16 -3 12 -12 27 -18 33 -30 32 -46 65 -35 76 8 8 4 9 -13 5 -21 -6 -23 -5 -10 10 12 15 11 17 -7 17 -13 0 -25 11 -33 29 -7 16 -17 27 -21 25 -4 -3 -5 2 -2 10 4 10 1 16 -7 16 -7 0 -10 3 -7 6 3 3 -5 17 -18 31 -13 14 -24 32 -24 39 0 7 -7 20 -16 29 -10 9 -14 24 -11 38 6 21 6 21 -8 3 -8 -11 -16 -17 -16 -13 -1 4 -3 10 -4 15 -2 4 -6 17 -10 30 -4 12 -14 22 -22 22 -8 0 -11 5 -7 11 3 6 -6 23 -21 39 -16 17 -25 35 -22 44 4 11 1 13 -10 9 -11 -4 -14 -2 -9 5 4 7 2 12 -4 12 -6 0 -8 5 -4 12 4 6 3 8 -3 5 -6 -4 -17 1 -24 10 -12 15 -12 16 4 10 11 -4 16 -3 12 3 -4 6 -12 9 -19 8 -15 -4 -132 113 -127 127 1 6 -1 7 -4 3 -7 -7 -77 37 -119 75 -20 17 -31 21 -55 18 -8 -2 -10 2 -5 10 5 9 2 10 -9 6 -9 -3 -19 -3 -21 2 -3 4 -31 13 -62 20 -46 11 -54 15 -40 23 10 5 29 7 43 4 16 -5 22 -3 18 4 -4 6 10 8 41 5 27 -3 53 0 61 6 14 12 122 8 158 -5 16 -6 17 -6 5 3 -11 8 7 11 70 10 59 0 79 -3 65 -9 -14 -7 -8 -8 20 -3 70 11 151 8 168 -5 9 -8 21 -10 28 -6 7 4 23 -6 39 -24 15 -17 31 -28 35 -24 5 4 5 -1 2 -10 -3 -9 -2 -18 2 -20 10 -4 76 -100 77 -113 1 -5 2 -15 3 -21 0 -7 21 -33 45 -58 46 -49 114 -151 93 -141 -6 4 0 -3 15 -15 18 -14 25 -27 21 -37 -4 -11 -2 -14 5 -9 7 4 12 1 12 -8 0 -8 9 -20 20 -26 11 -6 20 -16 20 -23 0 -8 -3 -8 -9 1 -7 11 -10 10 -15 -3 -3 -9 -6 -20 -6 -25 0 -12 29 -20 35 -9 4 5 1 8 -6 7 -6 -2 -13 2 -16 8 -2 6 3 11 12 11 8 0 18 -12 22 -26 8 -31 27 -53 39 -43 5 4 3 0 -4 -10 -9 -11 -10 -18 -2 -23 6 -3 7 -11 4 -17 -4 -7 -2 -8 5 -4 9 6 9 12 -1 24 -9 12 -6 11 10 -2 12 -11 24 -17 27 -14 6 6 -360 561 -412 626 -59 72 -59 72 -355 71 -145 -1 -285 -5 -313 -9z m-40 -81 c39 -11 80 -21 92 -22 11 -1 19 -5 16 -9 -2 -5 1 -8 8 -8 19 0 128 -82 193 -145 72 -72 76 -76 171 -225 41 -63 81 -124 89 -135 7 -11 60 -90 117 -175 57 -85 122 -181 146 -213 50 -68 50 -64 -33 -193 -127 -198 -169 -263 -218 -339 -29 -44 -83 -129 -121 -188 l-68 -108 -56 2 c-219 9 -439 113 -567 267 -70 85 -140 225 -160 322 -21 100 -14 280 14 366 47 143 132 267 250 367 96 81 274 157 368 157 53 0 124 12 124 21 0 12 -69 11 -122 -1 -24 -5 -84 -16 -135 -24 -300 -47 -529 -244 -619 -531 -26 -84 -26 -315 0 -395 27 -80 91 -201 130 -243 19 -20 31 -37 28 -37 -14 0 68 -75 123 -113 123 -84 208 -115 423 -153 13 -3 20 -9 17 -14 -4 -6 -12 -7 -18 -4 -7 4 -8 3 -4 -1 10 -12 87 -14 93 -3 3 4 13 8 22 8 15 0 15 -2 2 -11 -12 -9 -11 -10 5 -6 11 3 29 8 39 13 55 22 -99 -133 -156 -159 -16 -6 -28 -15 -28 -18 0 -20 -216 -89 -279 -89 -35 0 -111 28 -111 41 0 4 -16 10 -35 13 -19 4 -35 11 -35 16 0 6 -6 10 -14 10 -8 0 -22 10 -30 22 -9 12 -16 17 -16 11 0 -7 -6 -10 -14 -7 -8 3 -12 12 -9 20 4 10 0 12 -13 7 -13 -5 -15 -3 -9 7 6 9 4 12 -6 8 -19 -7 -53 17 -44 31 3 7 0 8 -9 5 -20 -8 -20 5 -1 26 13 14 12 16 -5 17 -11 1 -22 -2 -25 -8 -10 -16 -25 -10 -37 16 -6 13 -16 22 -21 18 -7 -4 -8 0 -4 11 5 13 3 17 -7 13 -23 -9 -55 37 -52 76 2 22 -1 34 -10 34 -9 0 -10 -5 -3 -18 13 -25 11 -33 -4 -20 -8 6 -16 9 -19 6 -2 -3 -15 13 -27 35 -12 22 -27 40 -33 40 -7 0 -6 5 1 14 9 10 9 16 1 21 -6 4 -14 4 -17 1 -10 -9 -34 46 -39 89 -6 49 -14 58 -15 19 l-1 -29 -12 35 c-7 19 -18 48 -26 63 -11 23 -11 30 -1 36 9 6 8 10 -6 13 -11 3 -20 11 -21 19 -1 16 -6 37 -15 59 -18 50 -35 429 -16 385 6 -16 8 -13 7 15 0 19 4 48 11 63 14 35 14 47 0 27 -9 -12 -9 -11 -4 5 4 11 17 53 29 93 14 50 25 71 34 67 8 -3 10 0 6 6 -9 15 66 161 81 156 6 -3 12 6 13 19 1 13 17 46 37 72 19 27 31 53 27 57 -4 5 -1 5 6 1 9 -5 9 -12 1 -28 -12 -23 3 -49 16 -27 6 8 4 10 -5 4 -10 -6 -12 -4 -6 11 5 10 9 26 10 35 0 8 9 23 19 33 9 10 17 21 17 26 0 5 8 7 18 3 9 -3 14 -3 10 2 -8 8 15 35 31 35 5 0 12 9 16 20 3 11 9 19 13 18 16 -3 41 15 35 26 -3 6 -3 8 2 4 4 -4 19 2 33 12 13 11 30 20 38 20 7 0 14 4 16 8 2 5 38 27 80 49 67 36 76 38 72 20 -2 -11 0 -16 4 -13 4 4 8 12 8 17 1 5 2 14 3 19 0 6 8 10 16 10 8 0 15 5 15 10 0 16 90 10 165 -11z m820 -175 c9 -15 12 -23 6 -20 -11 7 -35 46 -28 46 3 0 12 -12 22 -26z m-871 -180 c-57 -30 -95 -60 -168 -131 -30 -29 -57 -49 -60 -45 -4 3 -4 -1 -1 -9 3 -9 -4 -29 -17 -45 -13 -16 -28 -38 -35 -49 -6 -11 -16 -19 -23 -17 -6 1 -9 -2 -6 -7 8 -12 -33 -142 -48 -156 -13 -12 -14 -23 -19 -202 -2 -103 -7 -146 -18 -160 -13 -16 -13 -17 4 -4 9 7 18 25 18 40 1 18 4 13 8 -14 3 -22 3 -41 -1 -43 -5 -2 -8 -13 -8 -25 0 -16 3 -18 9 -8 6 10 10 10 16 1 4 -6 5 -14 2 -16 -3 -3 6 -24 19 -47 13 -23 30 -55 39 -72 15 -28 15 -29 -1 -10 -16 20 -16 20 -9 -4 5 -18 4 -22 -5 -16 -8 5 -11 4 -6 -3 4 -6 12 -9 19 -7 16 6 70 -71 61 -87 -4 -6 -3 -8 2 -5 6 3 16 2 24 -3 12 -7 12 -11 0 -27 -12 -15 -12 -16 0 -5 19 17 33 15 26 -4 -3 -8 -2 -12 4 -9 6 3 10 1 10 -4 0 -6 6 -10 13 -8 6 1 11 -4 10 -10 -2 -7 2 -13 7 -13 14 0 139 -92 140 -103 0 -9 -139 60 -157 79 -8 8 -18 14 -22 14 -4 0 -16 8 -27 18 -10 9 -34 29 -52 45 -19 15 -29 27 -23 27 7 0 -9 20 -34 45 -25 25 -45 51 -45 59 0 7 -9 21 -20 31 -11 10 -17 21 -15 25 3 5 2 10 -2 12 -5 1 -16 20 -26 41 -9 21 -13 36 -8 33 5 -4 13 -1 17 5 4 8 3 9 -4 5 -14 -9 -46 39 -38 59 3 8 2 15 -3 15 -25 0 -18 286 9 355 6 17 14 39 16 49 2 11 8 22 12 25 5 3 15 23 22 43 8 20 18 34 23 31 6 -3 7 -1 3 6 -10 15 29 67 116 154 41 42 72 66 79 61 7 -4 9 -3 6 3 -9 14 70 66 85 57 6 -4 8 -3 4 4 -3 6 9 15 31 22 21 7 42 16 48 21 5 5 18 9 28 9 12 0 1 -10 -29 -26z m-424 -1479 c-7 -9 -15 -13 -17 -11 -7 7 7 26 19 26 6 0 6 -6 -2 -15z m1171 -188 c-10 -9 -11 -8 -5 6 3 10 9 15 12 12 3 -3 0 -11 -7 -18z"/> <path d="M1336 4125 c-18 -14 -18 -14 1 -12 11 0 20 7 20 14 0 7 -1 13 -1 13 -1 0 -9 -7 -20 -15z"/> <path d="M1985 4090 c-16 -7 -17 -9 -3 -9 9 -1 20 4 23 9 7 11 7 11 -20 0z"/> <path d="M2070 4090 c8 -5 24 -10 34 -10 26 0 18 6 -19 14 -22 5 -26 4 -15 -4z"/> <path d="M1650 4010 c-9 -6 -10 -10 -3 -10 6 0 15 5 18 10 8 12 4 12 -15 0z"/> <path d="M1690 4016 c0 -2 7 -7 16 -10 8 -3 12 -2 9 4 -6 10 -25 14 -25 6z"/> <path d="M1537 3936 c-12 -9 -14 -16 -8 -21 6 -3 11 -1 11 5 0 6 4 9 8 6 5 -3 9 1 9 9 0 8 -1 15 -1 15 -1 0 -9 -7 -19 -14z"/> <path d="M1365 3779 c-3 -3 3 -13 13 -20 9 -7 14 -9 10 -5 -4 5 -3 14 2 21 7 8 5 12 -6 12 -8 0 -17 -4 -19 -8z"/> <path d="M1892 3739 c-308 -52 -445 -429 -246 -674 93 -114 240 -169 391 -145 78 13 83 15 83 40 0 13 -5 17 -20 13 -16 -4 -19 -2 -14 11 3 9 10 16 15 16 5 0 9 17 9 37 l0 37 -22 -31 c-28 -36 -82 -83 -97 -83 -11 0 -17 171 -6 182 6 6 70 -5 98 -17 13 -5 17 -2 17 13 0 22 -10 27 -77 37 l-43 7 0 64 0 64 105 0 c58 0 105 -3 105 -7 -1 -5 -5 -28 -10 -53 -5 -29 -5 -49 2 -57 17 -21 27 -5 34 57 l7 60 63 0 c45 0 64 -4 64 -12 0 -31 -30 -121 -50 -154 -19 -29 -20 -38 -9 -44 18 -12 26 -5 48 43 49 111 53 234 12 340 -71 181 -265 289 -459 256z m-12 -44 c0 -8 -2 -15 -4 -15 -2 0 -6 7 -10 15 -3 8 -1 15 4 15 6 0 10 -7 10 -15z m190 1 c-4 -4 -16 -4 -26 2 -16 9 -14 10 8 9 15 -1 23 -6 18 -11z m-122 -88 l-3 -93 -33 3 c-45 5 -105 26 -109 39 -5 14 118 143 135 143 10 0 12 -23 10 -92z m76 71 c35 -24 101 -103 101 -121 0 -12 -48 -31 -107 -42 l-38 -7 0 96 c0 52 3 95 7 95 4 0 21 -10 37 -21z m-174 6 c0 -6 -82 -115 -86 -115 -10 0 -44 36 -44 47 0 7 24 26 53 43 48 27 77 37 77 25z m324 -33 c49 -34 52 -42 19 -66 l-27 -20 -15 24 c-9 14 -28 39 -43 56 -16 17 -28 35 -28 39 0 13 55 -6 94 -33z m-431 -129 c-2 -10 -10 -55 -20 -99 l-16 -81 -65 -2 -64 -1 7 42 c8 49 44 135 76 179 l21 30 32 -25 c18 -14 30 -32 29 -43z m545 8 c36 -55 71 -159 59 -177 -3 -5 -31 -9 -63 -8 l-58 1 -12 59 c-6 32 -17 74 -23 93 -10 33 -9 36 22 62 17 16 33 28 35 29 1 0 19 -26 40 -59z m-137 6 c-10 -9 -11 -8 -5 6 3 10 9 15 12 12 3 -3 0 -11 -7 -18z m-286 -43 c27 -8 58 -14 68 -14 16 0 18 -8 15 -66 l-3 -66 -100 0 -100 1 3 33 c2 18 10 57 19 86 13 42 19 52 32 46 9 -4 38 -13 66 -20z m301 -24 c7 -24 14 -62 16 -83 l3 -38 -100 -1 -100 0 -3 65 -3 66 48 7 c26 4 61 13 78 20 41 18 46 15 61 -36z m49 -148 c-3 -3 -11 0 -18 7 -9 10 -8 11 6 5 10 -3 15 -9 12 -12z m-551 -12 l42 0 17 -77 c10 -43 20 -87 23 -98 3 -15 -4 -26 -30 -42 -32 -20 -35 -21 -49 -5 -22 26 -63 112 -77 161 -13 50 -7 76 16 67 9 -3 35 -6 58 -6z m286 -62 l0 -63 -68 -17 c-37 -9 -74 -19 -82 -22 -20 -8 -50 70 -50 127 l0 37 100 0 100 0 0 -62z m-2 -196 c2 -75 0 -92 -12 -92 -14 0 -136 126 -136 141 0 12 111 49 135 44 6 -1 11 -43 13 -93z m-116 -49 c27 -33 49 -50 58 -47 12 4 13 3 2 -8 -11 -11 -16 -10 -26 4 -7 10 -15 16 -17 13 -8 -7 -113 51 -123 69 -9 14 -6 21 14 37 23 20 25 20 37 2 7 -10 32 -41 55 -70z"/> <path d="M930 3321 c0 -6 4 -13 10 -16 6 -3 7 1 4 9 -7 18 -14 21 -14 7z"/> <path d="M941 3184 c0 -11 3 -14 6 -6 3 7 2 16 -1 19 -3 4 -6 -2 -5 -13z"/> <path d="M2140 3141 c4 -16 11 -64 15 -105 8 -81 15 -95 35 -71 19 23 26 19 54 -30 15 -25 31 -45 37 -45 20 0 20 31 0 63 -26 43 -26 44 5 60 l26 14 -42 34 c-23 19 -62 51 -85 72 -23 20 -45 37 -48 37 -3 0 -2 -13 3 -29z m44 -64 c-5 -9 -4 -9 6 0 9 8 17 6 31 -8 11 -11 23 -18 27 -15 4 2 13 -2 19 -10 10 -10 9 -16 -9 -28 -36 -25 -65 -20 -72 12 -14 61 -15 72 -5 67 5 -4 6 -12 3 -18z"/> <path d="M2245 3030 c-3 -5 -1 -10 4 -10 6 0 11 5 11 10 0 6 -2 10 -4 10 -3 0 -8 -4 -11 -10z"/> <path d="M1021 2904 c0 -11 3 -14 6 -6 3 7 2 16 -1 19 -3 4 -6 -2 -5 -13z"/> <path d="M1384 2869 c-3 -6 -2 -15 3 -20 5 -5 9 -1 9 11 0 23 -2 24 -12 9z"/> <path d="M1112 2770 c0 -14 2 -19 5 -12 2 6 2 18 0 25 -3 6 -5 1 -5 -13z"/> <path d="M1546 2697 c-16 -12 -16 -13 2 -13 10 0 19 6 19 13 0 7 -1 13 -2 13 -1 0 -9 -6 -19 -13z"/> <path d="M1928 2543 c6 -2 18 -2 25 0 6 3 1 5 -13 5 -14 0 -19 -2 -12 -5z"/> <path d="M2089 2493 c-13 -16 -12 -17 4 -4 9 7 17 15 17 17 0 8 -8 3 -21 -13z"/> <path d="M1639 3903 c-13 -17 -13 -17 6 -3 11 8 22 16 24 17 2 2 0 3 -6 3 -6 0 -17 -8 -24 -17z"/> <path d="M1413 3697 c-3 -6 -1 -7 5 -3 16 10 15 -7 0 -23 -10 -11 -10 -12 -1 -7 7 4 17 15 22 25 8 13 6 18 -5 18 -8 0 -18 -5 -21 -10z"/> <path d="M1362 3360 c0 -14 2 -19 5 -12 2 6 2 18 0 25 -3 6 -5 1 -5 -13z"/> <path d="M1362 3240 c0 -14 2 -19 5 -12 2 6 2 18 0 25 -3 6 -5 1 -5 -13z"/> <path d="M1370 3050 c0 -5 5 -10 10 -10 6 0 10 5 10 10 0 6 -4 10 -10 10 -5 0 -10 -4 -10 -10z"/> <path d="M1637 2709 c7 -7 15 -10 18 -7 3 3 -2 9 -12 12 -14 6 -15 5 -6 -5z"/> <path d="M3434 4403 c-71 -3 -95 -8 -107 -21 -18 -21 -349 -574 -372 -622 -17 -35 -16 -37 12 -83 15 -26 59 -93 97 -148 60 -89 70 -109 74 -156 4 -53 3 -57 -75 -186 -44 -73 -95 -159 -113 -192 -18 -33 -39 -67 -47 -77 -19 -21 -27 -8 224 -383 l208 -310 292 -3 c288 -2 292 -2 303 19 17 30 53 -31 -325 544 -83 127 -181 277 -219 335 -38 58 -80 121 -93 140 -13 19 -22 42 -20 52 3 10 70 119 149 243 78 124 166 261 193 304 28 44 106 167 174 273 154 240 152 235 123 258 -19 16 -44 18 -204 17 -101 0 -224 -2 -274 -4z m-4 -33 c-9 -6 -10 -10 -3 -10 6 0 15 5 19 11 6 11 36 8 79 -6 15 -5 16 -4 6 3 -9 6 44 9 155 9 174 0 198 -5 168 -38 -10 -11 -12 -19 -5 -24 6 -3 11 -11 11 -16 0 -6 -4 -7 -10 -4 -5 3 -11 -1 -11 -9 -1 -9 -3 -20 -4 -26 -1 -5 -3 -14 -4 -19 0 -5 -10 -11 -21 -14 -12 -3 -20 -14 -20 -25 0 -11 -6 -27 -13 -34 -7 -7 -18 -26 -25 -41 -9 -20 -17 -27 -29 -23 -12 5 -13 3 -5 -6 7 -9 7 -18 -2 -30 -7 -10 -16 -15 -19 -12 -3 3 -3 -3 0 -15 3 -14 0 -23 -11 -27 -9 -3 -16 -12 -16 -18 0 -16 -39 -58 -49 -52 -4 3 -8 -1 -8 -9 0 -9 5 -12 12 -7 6 4 3 -1 -8 -10 -10 -10 -16 -22 -13 -27 9 -14 -16 -28 -49 -27 -19 1 -29 7 -27 15 6 27 66 110 75 104 6 -4 7 -1 2 7 -4 7 -3 15 2 19 5 3 27 35 47 71 21 36 44 69 52 73 8 4 14 17 14 27 0 11 6 19 13 18 7 -2 11 6 10 19 -2 17 1 21 14 16 13 -5 15 -2 10 11 -6 14 -3 17 9 12 13 -5 14 -3 6 6 -7 9 -6 17 3 25 11 10 15 9 18 -5 3 -9 5 -1 6 18 2 43 14 65 31 55 9 -5 11 -4 6 3 -4 7 -16 12 -27 12 -11 0 -18 -4 -15 -8 3 -5 -10 -32 -28 -60 -19 -28 -45 -70 -57 -94 -13 -24 -29 -48 -35 -54 -6 -7 -30 -45 -54 -85 -25 -41 -59 -95 -77 -121 -18 -26 -33 -51 -33 -55 0 -3 -7 -15 -17 -25 -9 -11 -11 -18 -5 -18 7 0 12 5 12 11 0 8 4 8 14 0 7 -6 21 -9 30 -5 12 4 16 0 16 -16 0 -17 -4 -20 -22 -16 -13 3 -17 3 -10 0 6 -3 12 -10 12 -15 0 -6 -4 -8 -9 -5 -5 3 -12 -1 -15 -10 -4 -10 -2 -13 6 -8 7 4 2 -6 -10 -23 -12 -17 -22 -36 -22 -42 0 -5 -7 -14 -16 -19 -9 -5 -14 -11 -12 -14 1 -4 -9 -20 -24 -37 -16 -17 -28 -36 -28 -42 0 -7 -12 -22 -27 -35 -15 -13 -24 -26 -20 -30 4 -4 7 -2 7 4 0 7 4 12 10 12 5 0 -12 -31 -37 -70 -26 -38 -51 -70 -57 -70 -6 0 -4 5 4 10 9 6 10 10 3 10 -16 0 -26 -17 -14 -24 5 -4 -2 -26 -16 -52 -18 -32 -23 -52 -18 -72 3 -15 7 -35 8 -44 1 -9 5 -15 9 -12 7 5 60 -68 71 -98 4 -10 11 -18 16 -18 5 0 8 -9 6 -19 -3 -15 1 -18 12 -14 11 4 14 2 9 -5 -4 -7 -2 -17 4 -24 48 -57 57 -73 52 -86 -4 -11 -2 -13 8 -7 9 5 11 4 6 -3 -14 -23 -14 -49 -1 -49 8 0 12 4 9 9 -3 4 0 8 6 8 6 0 8 6 4 13 -4 7 -3 9 2 4 5 -5 8 -11 6 -13 -5 -8 28 -63 49 -83 13 -12 17 -21 10 -26 -6 -3 -11 -12 -11 -18 0 -7 4 -6 10 3 5 8 12 11 16 7 4 -3 1 -15 -7 -24 -7 -10 -9 -15 -5 -11 5 4 15 3 23 -4 11 -9 12 -7 8 8 -4 10 3 1 15 -21 12 -24 19 -51 16 -69 -3 -20 -2 -26 6 -18 12 12 41 4 32 -9 -3 -5 -1 -9 5 -9 6 0 18 -15 27 -32 10 -18 24 -38 32 -44 13 -9 12 -12 -7 -17 -11 -3 -21 -11 -21 -19 0 -9 3 -9 8 -2 9 14 43 14 35 1 -4 -6 0 -8 10 -4 11 4 14 2 10 -9 -6 -16 -19 -18 -28 -4 -8 13 -25 3 -24 -13 0 -8 2 -8 6 1 4 10 8 10 19 1 11 -9 18 -8 32 2 9 7 14 9 10 5 -4 -5 -3 -15 3 -23 6 -7 8 -13 3 -13 -4 0 3 -12 17 -27 13 -15 17 -22 8 -15 -13 9 -16 9 -16 -3 0 -8 4 -12 8 -9 4 2 13 -1 18 -8 46 -56 64 -81 56 -76 -6 4 -12 -2 -12 -13 -1 -10 7 -24 18 -30 20 -10 20 -11 2 -32 l-18 -22 22 19 c18 15 20 21 10 36 -6 10 -15 16 -19 14 -4 -3 -8 0 -8 5 0 18 15 12 38 -14 12 -14 17 -25 12 -25 -6 0 -10 -5 -10 -11 0 -5 5 -7 11 -3 7 4 10 -1 7 -11 -1 -10 -10 -20 -18 -22 -13 -4 -13 -3 0 7 12 9 10 11 -11 6 -14 -3 -83 -9 -152 -12 -100 -6 -127 -4 -127 6 0 10 -3 10 -15 0 -11 -9 -43 -11 -114 -7 -107 5 -126 11 -117 33 5 12 2 12 -16 3 -20 -11 -20 -10 -4 12 21 30 21 49 0 23 -11 -13 -14 -14 -11 -3 3 9 -4 21 -16 29 -20 12 -21 12 -8 -4 8 -9 12 -18 10 -21 -2 -2 -15 12 -27 32 -13 19 -18 32 -12 28 9 -6 9 -2 1 14 -7 11 -14 21 -17 21 -3 0 -2 -5 2 -12 4 -7 3 -8 -5 -4 -6 4 -9 11 -6 16 3 4 2 10 -3 12 -4 1 -31 35 -59 74 -39 55 -49 74 -40 83 9 9 8 11 -3 7 -10 -4 -19 3 -27 19 -6 14 -8 23 -4 20 4 -2 8 2 8 9 0 8 -6 12 -12 10 -7 -3 -23 11 -36 30 -13 20 -27 36 -30 36 -4 0 -5 13 -4 29 3 36 -9 60 -18 36 -4 -9 -3 -14 1 -11 5 3 9 -1 9 -9 0 -13 -4 -12 -19 2 -17 15 -17 18 -2 34 14 16 13 18 -21 30 -32 12 -36 17 -31 41 3 15 1 30 -4 33 -5 3 -7 0 -4 -8 3 -8 -1 -18 -8 -23 -7 -4 -10 -4 -6 1 4 4 3 14 -3 21 -12 15 12 60 25 46 4 -4 6 -2 5 3 -9 30 17 61 45 56 5 -1 4 5 -3 13 -11 13 -6 26 25 78 22 35 37 67 36 73 -2 5 -1 7 3 3 8 -8 45 22 45 37 0 5 -5 3 -10 -5 -5 -8 -10 -10 -10 -4 0 6 7 17 15 24 9 7 14 19 11 27 -7 17 10 17 18 1 3 -7 3 -3 0 10 -4 15 -1 22 9 22 11 0 13 7 9 22 -3 11 -1 19 4 16 5 -4 10 4 11 15 1 12 4 40 7 62 4 31 3 34 -3 15 -9 -24 -9 -24 -10 8 -1 17 -5 32 -10 32 -5 0 -13 10 -17 23 -4 12 -11 25 -17 29 -6 3 -12 16 -14 28 -2 12 1 19 7 15 6 -4 7 1 3 10 -4 12 -8 13 -13 5 -11 -19 -25 -6 -60 56 -27 47 -30 57 -19 72 11 13 9 13 -9 -2 -22 -19 -25 -17 -21 22 0 4 10 6 22 4 18 -2 19 0 7 8 -8 5 -23 7 -32 4 -22 -7 -24 12 -3 20 8 3 15 11 15 17 0 8 -5 8 -16 -1 -13 -12 -14 -10 -2 14 7 16 14 23 16 17 7 -21 30 8 24 31 -4 16 -2 19 8 13 8 -5 11 -4 6 3 -8 14 28 74 39 64 4 -4 5 1 1 12 -5 14 -3 17 10 12 13 -5 15 -2 11 14 -3 11 -2 18 3 15 4 -3 10 4 13 16 5 18 3 18 -11 7 -9 -7 -2 4 16 25 18 21 29 43 26 49 -4 7 -2 8 4 4 7 -4 12 -2 12 4 0 6 4 8 10 5 5 -3 9 2 8 12 0 10 0 27 1 38 1 17 3 18 11 5 8 -13 10 -13 10 2 0 9 9 19 20 23 12 4 24 21 30 46 6 22 15 37 19 35 5 -3 7 5 6 19 -2 13 3 29 11 36 7 6 11 16 7 22 -4 6 0 8 10 4 11 -4 14 -2 11 8 -10 25 55 75 96 75 26 0 31 -3 20 -10z m470 -5 c7 4 5 -6 -6 -24 -10 -17 -22 -31 -26 -31 -15 0 -17 18 -3 30 7 6 11 19 8 28 -4 13 -3 14 5 3 6 -8 15 -10 22 -6z m-86 -160 c-4 -8 -8 -15 -10 -15 -2 0 -4 7 -4 15 0 8 4 15 10 15 5 0 7 -7 4 -15z m-577 -40 c-4 -8 -11 -15 -17 -15 -6 0 -6 7 2 20 14 22 24 19 15 -5z m-242 -1363 c-3 -3 -11 0 -18 7 -9 10 -8 11 6 5 10 -3 15 -9 12 -12z m626 -105 c-10 -9 -11 -8 -5 6 3 10 9 15 12 12 3 -3 0 -11 -7 -18z"/> <path d="M3326 4323 c-6 -14 -5 -15 5 -6 7 7 10 15 7 18 -3 3 -9 -2 -12 -12z"/> <path d="M3766 4183 c-6 -14 -5 -15 5 -6 7 7 10 15 7 18 -3 3 -9 -2 -12 -12z"/> <path d="M3251 4127 c-13 -21 -12 -21 5 -5 10 10 16 20 13 22 -3 3 -11 -5 -18 -17z"/> <path d="M3686 4102 c-2 -4 -1 -14 4 -22 7 -11 9 -9 7 8 -1 24 -3 26 -11 14z"/> <path d="M3180 4040 c-9 -6 -10 -10 -3 -10 6 0 15 5 18 10 8 12 4 12 -15 0z"/> <path d="M3631 3984 c0 -11 3 -14 6 -6 3 7 2 16 -1 19 -3 4 -6 -2 -5 -13z"/> <path d="M3015 3740 c-3 -5 -1 -10 4 -10 6 0 11 5 11 10 0 6 -2 10 -4 10 -3 0 -8 -4 -11 -10z"/> <path d="M3047 3619 c7 -7 15 -10 18 -7 3 3 -2 9 -12 12 -14 6 -15 5 -6 -5z"/> <path d="M3381 3604 c0 -11 3 -14 6 -6 3 7 2 16 -1 19 -3 4 -6 -2 -5 -13z"/> <path d="M3066 3575 c4 -8 10 -15 15 -15 4 0 6 7 3 15 -4 8 -10 15 -15 15 -4 0 -6 -7 -3 -15z"/> <path d="M3305 3460 c-3 -5 -1 -10 4 -10 6 0 11 5 11 10 0 6 -2 10 -4 10 -3 0 -8 -4 -11 -10z"/> <path d="M3185 3210 c-3 -5 -1 -10 4 -10 6 0 11 5 11 10 0 6 -2 10 -4 10 -3 0 -8 -4 -11 -10z"/> <path d="M3300 3166 c0 -2 7 -7 16 -10 8 -3 12 -2 9 4 -6 10 -25 14 -25 6z"/> <path d="M3210 3156 c0 -2 7 -7 16 -10 8 -3 12 -2 9 4 -6 10 -25 14 -25 6z"/> <path d="M3251 3104 c0 -11 3 -14 6 -6 3 7 2 16 -1 19 -3 4 -6 -2 -5 -13z"/> <path d="M3270 3080 c0 -5 5 -10 11 -10 5 0 7 5 4 10 -3 6 -8 10 -11 10 -2 0 -4 -4 -4 -10z"/> <path d="M3010 3044 c0 -6 7 -19 16 -30 14 -18 14 -18 3 6 -14 31 -19 36 -19 24z"/> <path d="M3300 3047 c0 -14 31 -69 36 -64 3 3 -4 20 -15 38 -12 19 -21 30 -21 26z"/> <path d="M3370 3040 c-8 -5 -12 -12 -9 -15 4 -3 12 1 19 10 14 17 11 19 -10 5z"/> <path d="M3393 3007 c0 -8 6 -14 14 -14 9 0 10 4 2 14 -6 7 -12 13 -14 13 -1 0 -2 -6 -2 -13z"/> <path d="M3350 2959 c0 -19 36 -59 53 -58 8 0 8 2 -1 6 -8 3 -22 19 -33 37 -10 17 -19 24 -19 15z"/> <path d="M3010 2826 c0 -2 7 -7 16 -10 8 -3 12 -2 9 4 -6 10 -25 14 -25 6z"/> <path d="M3450 2800 c0 -5 5 -10 11 -10 5 0 7 5 4 10 -3 6 -8 10 -11 10 -2 0 -4 -4 -4 -10z"/> <path d="M3510 2711 c0 -5 5 -13 10 -16 6 -3 10 -2 10 4 0 5 -4 13 -10 16 -5 3 -10 2 -10 -4z"/> <path d="M3555 2640 c3 -5 8 -10 11 -10 2 0 4 5 4 10 0 6 -5 10 -11 10 -5 0 -7 -4 -4 -10z"/> <path d="M3152 2571 c-10 -6 -9 -11 4 -22 9 -8 19 -13 21 -11 1 1 6 2 11 2 4 0 1 -4 -6 -9 -11 -7 -11 -9 1 -14 8 -3 14 0 13 6 -3 22 -17 37 -28 31 -7 -5 -9 -1 -5 9 7 19 7 20 -11 8z"/> <path d="M3420 2266 c0 -2 7 -7 16 -10 8 -3 12 -2 9 4 -6 10 -25 14 -25 6z"/> <path d="M2138 4373 c6 -2 18 -2 25 0 6 3 1 5 -13 5 -14 0 -19 -2 -12 -5z"/> <path d="M2480 4291 c0 -6 4 -13 10 -16 6 -3 7 1 4 9 -7 18 -14 21 -14 7z"/> <path d="M2625 4259 c-4 -6 -5 -12 -2 -15 2 -3 7 2 10 11 7 17 1 20 -8 4z"/> <path d="M3899 4233 c-13 -16 -12 -17 4 -4 16 13 21 21 13 21 -2 0 -10 -8 -17 -17z"/> <path d="M2566 4184 c-8 -22 -4 -25 11 -9 7 8 9 16 4 19 -5 3 -12 -1 -15 -10z"/> <path d="M2750 3920 c0 -5 5 -10 11 -10 5 0 7 5 4 10 -3 6 -8 10 -11 10 -2 0 -4 -4 -4 -10z"/> <path d="M2730 3914 c0 -13 18 -39 24 -34 2 3 -2 14 -10 24 -8 11 -14 16 -14 10z"/> <path d="M2386 3853 c-6 -14 -5 -15 5 -6 7 7 10 15 7 18 -3 3 -9 -2 -12 -12z"/> <path d="M2979 3597 c6 -8 7 -18 3 -22 -4 -5 -1 -5 6 -1 10 6 10 11 1 22 -6 8 -14 14 -16 14 -3 0 0 -6 6 -13z"/> <path d="M3062 3450 c0 -14 2 -19 5 -12 2 6 2 18 0 25 -3 6 -5 1 -5 -13z"/> <path d="M3085 3299 c-11 -16 -1 -19 13 -3 7 8 8 14 3 14 -5 0 -13 -5 -16 -11z"/> <path d="M2880 2971 c0 -6 4 -13 10 -16 6 -3 7 1 4 9 -7 18 -14 21 -14 7z"/> <path d="M2445 2840 c3 -5 8 -10 11 -10 2 0 4 5 4 10 0 6 -5 10 -11 10 -5 0 -7 -4 -4 -10z"/> <path d="M2905 2791 c-3 -5 -2 -12 3 -15 5 -3 9 1 9 9 0 17 -3 19 -12 6z"/> <path d="M2685 2650 c-3 -5 -1 -10 4 -10 6 0 11 5 11 10 0 6 -2 10 -4 10 -3 0 -8 -4 -11 -10z"/> <path d="M2220 2531 c0 -6 4 -13 10 -16 6 -3 7 1 4 9 -7 18 -14 21 -14 7z"/> <path d="M2591 2484 c0 -11 3 -14 6 -6 3 7 2 16 -1 19 -3 4 -6 -2 -5 -13z"/> <path d="M3230 2296 c0 -2 8 -10 18 -17 15 -13 16 -12 3 4 -13 16 -21 21 -21 13z"/> </g> </svg>